<svg width="117" height="31" viewBox="0 0 117 31" fill="none" xmlns="http://www.w3.org/2000/svg">
<path d="M26.8132 11.0938H20.5916C20.478 10.2888 20.246 9.57386 19.8956 8.94886C19.5452 8.31439 19.0954 7.77462 18.5462 7.32955C17.9969 6.88447 17.3625 6.54356 16.6428 6.30682C15.9325 6.07008 15.1607 5.9517 14.3274 5.9517C12.8217 5.9517 11.5102 6.32576 10.3928 7.07386C9.27533 7.8125 8.40885 8.89205 7.79332 10.3125C7.17779 11.7235 6.87003 13.4375 6.87003 15.4545C6.87003 17.5284 7.17779 19.2708 7.79332 20.6818C8.41832 22.0928 9.28954 23.1581 10.407 23.8778C11.5244 24.5975 12.817 24.9574 14.2848 24.9574C15.1087 24.9574 15.871 24.8485 16.5717 24.6307C17.282 24.4129 17.9117 24.0956 18.4609 23.679C19.0102 23.2528 19.4647 22.7367 19.8246 22.1307C20.1939 21.5246 20.4496 20.8333 20.5916 20.0568L26.8132 20.0852C26.6522 21.4205 26.2498 22.7083 25.6058 23.9489C24.9714 25.1799 24.1143 26.2831 23.0348 27.2585C21.9647 28.2244 20.6863 28.9915 19.1996 29.5597C17.7223 30.1184 16.0509 30.3977 14.1854 30.3977C11.5907 30.3977 9.2706 29.8106 7.22514 28.6364C5.18916 27.4621 3.57931 25.7623 2.3956 23.5369C1.22135 21.3116 0.634233 18.6174 0.634233 15.4545C0.634233 12.2822 1.23082 9.58333 2.42401 7.35795C3.61719 5.13258 5.23651 3.4375 7.28196 2.27273C9.32742 1.09848 11.6286 0.511363 14.1854 0.511363C15.871 0.511363 17.4335 0.748105 18.8729 1.22159C20.3217 1.69508 21.6049 2.38636 22.7223 3.29545C23.8397 4.19507 24.7488 5.29829 25.4496 6.60511C26.1598 7.91193 26.6143 9.40814 26.8132 11.0938ZM31.2237 30V0.90909H37.3743V12.9119H49.8601V0.90909H55.9964V30H49.8601V17.983H37.3743V30H31.2237ZM66.0817 30H59.4908L69.5334 0.90909H77.4595L87.4879 30H80.897L73.6101 7.55682H73.3828L66.0817 30ZM65.6697 18.5653H81.2379V23.3665H65.6697V18.5653ZM116.355 15.4545C116.355 18.6269 115.754 21.3258 114.551 23.5511C113.358 25.7765 111.729 27.4763 109.665 28.6506C107.61 29.8153 105.299 30.3977 102.733 30.3977C100.148 30.3977 97.8277 29.8106 95.7727 28.6364C93.7178 27.4621 92.0938 25.7623 90.9006 23.5369C89.7074 21.3116 89.1108 18.6174 89.1108 15.4545C89.1108 12.2822 89.7074 9.58333 90.9006 7.35795C92.0938 5.13258 93.7178 3.4375 95.7727 2.27273C97.8277 1.09848 100.148 0.511363 102.733 0.511363C105.299 0.511363 107.61 1.09848 109.665 2.27273C111.729 3.4375 113.358 5.13258 114.551 7.35795C115.754 9.58333 116.355 12.2822 116.355 15.4545ZM110.119 15.4545C110.119 13.3996 109.812 11.6667 109.196 10.2557C108.59 8.8447 107.733 7.77462 106.625 7.04545C105.517 6.31629 104.22 5.9517 102.733 5.9517C101.246 5.9517 99.9489 6.31629 98.8409 7.04545C97.733 7.77462 96.8712 8.8447 96.2557 10.2557C95.6496 11.6667 95.3466 13.3996 95.3466 15.4545C95.3466 17.5095 95.6496 19.2424 96.2557 20.6534C96.8712 22.0644 97.733 23.1345 98.8409 23.8636C99.9489 24.5928 101.246 24.9574 102.733 24.9574C104.22 24.9574 105.517 24.5928 106.625 23.8636C107.733 23.1345 108.59 22.0644 109.196 20.6534C109.812 19.2424 110.119 17.5095 110.119 15.4545Z" fill="white"/>
</svg>
