<svg width="140" height="37" viewBox="0 0 140 37" fill="none" xmlns="http://www.w3.org/2000/svg">
<path d="M31.8352 13.3125H24.3693C24.233 12.3466 23.9545 11.4886 23.5341 10.7386C23.1136 9.97727 22.5739 9.32954 21.9148 8.79545C21.2557 8.26136 20.4943 7.85227 19.6307 7.56818C18.7784 7.28409 17.8523 7.14205 16.8523 7.14205C15.0455 7.14205 13.4716 7.59091 12.1307 8.48864C10.7898 9.375 9.75 10.6705 9.01136 12.375C8.27273 14.0682 7.90341 16.125 7.90341 18.5455C7.90341 21.0341 8.27273 23.125 9.01136 24.8182C9.76136 26.5114 10.8068 27.7898 12.1477 28.6534C13.4886 29.517 15.0398 29.9489 16.8011 29.9489C17.7898 29.9489 18.7045 29.8182 19.5455 29.5568C20.3977 29.2955 21.1534 28.9148 21.8125 28.4148C22.4716 27.9034 23.017 27.2841 23.4489 26.5568C23.892 25.8295 24.1989 25 24.3693 24.0682L31.8352 24.1023C31.642 25.7045 31.1591 27.25 30.3864 28.7386C29.625 30.2159 28.5966 31.5398 27.3011 32.7102C26.017 33.8693 24.483 34.7898 22.6989 35.4716C20.9261 36.142 18.9205 36.4773 16.6818 36.4773C13.5682 36.4773 10.7841 35.7727 8.32955 34.3636C5.88636 32.9545 3.95455 30.9148 2.53409 28.2443C1.125 25.5739 0.420455 22.3409 0.420455 18.5455C0.420455 14.7386 1.13636 11.5 2.56818 8.82955C4 6.15909 5.94318 4.125 8.39773 2.72727C10.8523 1.31818 13.6136 0.613635 16.6818 0.613635C18.7045 0.613635 20.5795 0.897726 22.3068 1.46591C24.0455 2.03409 25.5852 2.86364 26.9261 3.95454C28.267 5.03409 29.358 6.35795 30.1989 7.92614C31.0511 9.49432 31.5966 11.2898 31.8352 13.3125ZM37.1278 36V1.09091H44.5085V15.4943H59.4915V1.09091H66.8551V36H59.4915V21.5795H44.5085V36H37.1278ZM78.9574 36H71.0483L83.0994 1.09091H92.6108L104.645 36H96.7358L87.9915 9.06818H87.7188L78.9574 36ZM78.4631 22.2784H97.1449V28.0398H78.4631V22.2784ZM139.286 18.5455C139.286 22.3523 138.564 25.5909 137.121 28.2614C135.689 30.9318 133.734 32.9716 131.257 34.3807C128.791 35.7784 126.018 36.4773 122.939 36.4773C119.837 36.4773 117.053 35.7727 114.587 34.3636C112.121 32.9545 110.172 30.9148 108.74 28.2443C107.308 25.5739 106.592 22.3409 106.592 18.5455C106.592 14.7386 107.308 11.5 108.74 8.82955C110.172 6.15909 112.121 4.125 114.587 2.72727C117.053 1.31818 119.837 0.613635 122.939 0.613635C126.018 0.613635 128.791 1.31818 131.257 2.72727C133.734 4.125 135.689 6.15909 137.121 8.82955C138.564 11.5 139.286 14.7386 139.286 18.5455ZM131.803 18.5455C131.803 16.0795 131.433 14 130.695 12.3068C129.967 10.6136 128.939 9.32955 127.609 8.45455C126.28 7.57955 124.723 7.14205 122.939 7.14205C121.155 7.14205 119.598 7.57955 118.268 8.45455C116.939 9.32955 115.905 10.6136 115.166 12.3068C114.439 14 114.075 16.0795 114.075 18.5455C114.075 21.0114 114.439 23.0909 115.166 24.7841C115.905 26.4773 116.939 27.7614 118.268 28.6364C119.598 29.5114 121.155 29.9489 122.939 29.9489C124.723 29.9489 126.28 29.5114 127.609 28.6364C128.939 27.7614 129.967 26.4773 130.695 24.7841C131.433 23.0909 131.803 21.0114 131.803 18.5455Z" fill="black"/>
</svg>
